<svg width="495" height="1074" viewBox="0 0 495 1074" fill="none" xmlns="http://www.w3.org/2000/svg">
<g opacity="0.05">
<path d="M278.308 569.781C278.199 569.521 278.166 569.235 278.214 568.956L375.246 1.46876C375.495 0.0126855 377.484 -0.229306 378.075 1.12464L463.687 197.343C463.803 197.609 463.839 197.904 463.79 198.188L365.753 771.556C365.502 773.024 363.489 773.253 362.915 771.88L278.308 569.781Z" fill="#1B264F"/>
<path d="M97.6458 483.072C97.4565 483.281 97.3306 483.541 97.283 483.819L0.251121 1051.31C0.00219615 1052.76 1.79838 1053.65 2.80557 1052.57L148.748 895.944C148.946 895.732 149.077 895.467 149.126 895.181L247.163 321.814C247.414 320.346 245.593 319.461 244.594 320.566L97.6458 483.072Z" fill="#274690"/>
<path d="M186.186 1035.72C185.965 1037.01 187.407 1037.94 188.491 1037.2L322.916 945.411C323.502 945.011 323.724 944.253 323.445 943.598L238.66 745.069C238.077 743.705 236.076 743.941 235.826 745.402L186.186 1035.72Z" fill="#576CA8"/>
</g>
</svg>
