<svg width="307" height="665" viewBox="0 0 307 665" fill="none" xmlns="http://www.w3.org/2000/svg">
<g opacity="0.05">
<path d="M133.795 353.102C133.863 352.941 133.883 352.764 133.854 352.591L73.7218 0.910216C73.5675 0.00786138 72.3346 -0.142104 71.9684 0.696957L18.9135 122.297C18.8416 122.461 18.8195 122.644 18.8496 122.82L79.6049 478.145C79.7604 479.055 81.0079 479.197 81.3636 478.346L133.795 353.102Z" fill="#1B264F"/>
<path d="M245.755 299.367C245.872 299.497 245.95 299.658 245.98 299.83L306.112 651.511C306.266 652.413 305.153 652.965 304.529 652.294L214.086 555.231C213.963 555.099 213.882 554.935 213.852 554.757L153.097 199.433C152.941 198.523 154.07 197.975 154.689 198.659L245.755 299.367Z" fill="#274690"/>
</g>
</svg>
