<svg width="26" height="92" viewBox="0 0 26 92" fill="none" xmlns="http://www.w3.org/2000/svg">
<path d="M16.1558 48.4994C16.0541 48.3391 16 48.1531 16 47.9633L16 3.34644C16 2.35328 17.2911 1.96746 17.836 2.79778L25.836 14.9883C25.943 15.1513 26 15.342 26 15.5369L26 60.5601C26 61.561 24.6924 61.9411 24.1558 61.0962L16.1558 48.4994Z" fill="#1B264F"/>
<path d="M0.155849 43.5006C0.054057 43.6609 6.92688e-07 43.8469 7.00988e-07 44.0367L2.65125e-06 88.6536C2.69466e-06 89.6467 1.29115 90.0325 1.83605 89.2022L9.83605 77.0117C9.94302 76.8487 10 76.658 10 76.4631L10 31.4399C10 30.439 8.69245 30.0589 8.15585 30.9038L0.155849 43.5006Z" fill="#274690"/>
<path d="M15 85.6425C15 86.5253 16.0603 86.9751 16.695 86.3615L24.4094 78.9044C24.7527 78.5726 24.8135 78.0444 24.5547 77.6433L16.8403 65.686C16.2997 64.848 15 65.2309 15 66.2281L15 85.6425Z" fill="#576CA8"/>
</svg>
