<svg width="211" height="633" viewBox="0 0 211 633" fill="none" xmlns="http://www.w3.org/2000/svg">
<g opacity="0.05">
<path d="M129.708 390.957C129.606 390.797 129.552 390.611 129.552 390.421L129.552 3.34644C129.552 2.35327 130.843 1.96747 131.388 2.79779L210.358 123.133C210.465 123.296 210.522 123.487 210.522 123.681L210.522 514.767C210.522 515.768 209.214 516.148 208.678 515.303L129.708 390.957Z" fill="#1B264F"/>
<path d="M0.155857 353.966C0.0540655 354.126 5.57741e-06 354.312 5.58571e-06 354.502L2.25053e-05 741.577C2.25487e-05 742.57 1.29117 742.956 1.83607 742.125L80.806 621.79C80.9129 621.627 80.9699 621.436 80.9699 621.241L80.9699 230.156C80.9699 229.155 79.6623 228.775 79.1257 229.62L0.155857 353.966Z" fill="#274690"/>
<path d="M121.455 710.178C121.455 711.06 122.515 711.51 123.15 710.897L201.834 634.836C202.177 634.505 202.238 633.977 201.979 633.575L123.295 511.615C122.754 510.777 121.455 511.16 121.455 512.157L121.455 710.178Z" fill="#576CA8"/>
</g>
</svg>
