<svg width="203" height="519" viewBox="0 0 203 519" fill="none" xmlns="http://www.w3.org/2000/svg">
<g opacity="0.05">
<path d="M202.269 390.957C202.371 390.797 202.425 390.611 202.425 390.421L202.425 3.34644C202.425 2.35327 201.134 1.96747 200.589 2.79779L121.619 123.133C121.512 123.296 121.455 123.487 121.455 123.681L121.455 514.767C121.455 515.768 122.762 516.148 123.299 515.303L202.269 390.957Z" fill="#274690"/>
<path d="M80.97 34.7453C80.97 33.8625 79.9096 33.4128 79.275 34.0263L0.590686 110.086C0.247432 110.418 0.186588 110.946 0.4454 111.348L79.1297 233.308C79.6703 234.146 80.97 233.763 80.97 232.766L80.97 34.7453Z" fill="#576CA8"/>
</g>
</svg>
